<svg
  width="483"
  height="8"
  viewBox="0 0 483 8"
  fill="none"
  xmlns="http://www.w3.org/2000/svg"
>
  <path
    d="M72.99 3.25563L74.0401 3.22387H71.761L72.7324 3.19212C73.7806 3.1797 75.2474 3.19212 75.9277 3.16796C75.9615 3.15209 74.8028 3.16106 74.4668 3.15278C74.1632 3.1438 73.9072 3.13433 73.7019 3.12448C74.2728 3.11774 74.9109 3.11305 75.5781 3.11067C76.4816 3.10903 77.3511 3.10306 78.0906 3.09341C79.6177 3.07754 81.0752 3.05752 82.7275 3.03819L82.0427 3.0092L84.2014 2.99195C84.4372 2.99195 84.6892 2.98435 84.9235 2.98504C86.8751 2.99126 87.5961 2.96641 88.432 2.94294C88.6008 2.93744 88.8099 2.93233 89.0538 2.92775C91.5388 2.90497 93.9079 2.91809 96.2003 2.91188C96.637 2.91208 97.0623 2.91396 97.4461 2.9174C98.2734 2.9231 99.1768 2.92501 100.074 2.92296C100.97 2.92091 101.832 2.91497 102.58 2.90566C104.234 2.88542 106.142 2.87282 108.12 2.86908C108.71 2.86858 109.293 2.86593 109.83 2.8613C110.368 2.85666 110.849 2.85014 111.242 2.84216L112.607 2.84699C113.134 2.83203 113.825 2.819 114.637 2.80867C115.449 2.79835 116.367 2.79096 117.333 2.78694C118.364 2.7828 119.4 2.7759 120.47 2.77175C122.675 2.76192 124.799 2.74657 126.776 2.7262C129.738 2.70066 132.625 2.67374 135.622 2.65027C137.491 2.63387 139.302 2.61542 141.045 2.59505C143.139 2.57224 145.436 2.5561 147.827 2.54742C147.786 2.56675 146.749 2.57365 146.065 2.58124C143.854 2.60471 141.573 2.62404 139.287 2.64544C138.259 2.65543 137.264 2.66649 136.308 2.67857C134.705 2.69708 132.998 2.71259 131.219 2.72482C128.425 2.74834 125.737 2.77581 123.185 2.80696C122.987 2.81008 122.809 2.81355 122.652 2.81731C122.624 2.81928 122.624 2.82131 122.654 2.82323C122.684 2.82515 122.741 2.82689 122.821 2.82828C122.901 2.82966 123 2.83065 123.11 2.83115C123.22 2.83164 123.336 2.83163 123.448 2.83112C124.509 2.83112 125.648 2.83112 126.612 2.82145C126.65 2.82115 126.69 2.82099 126.731 2.82099C126.772 2.82099 126.812 2.82115 126.848 2.82145C129.088 2.82145 130.832 2.79591 132.516 2.78004C135.329 2.75805 138.02 2.73122 140.546 2.69997C140.929 2.69542 141.347 2.69193 141.787 2.68961C144.48 2.66924 146.963 2.64072 149.118 2.6054C150.01 2.59229 150.829 2.5771 151.797 2.56537C152.392 2.55784 152.899 2.54834 153.287 2.53742C153.675 2.52651 153.936 2.51441 154.054 2.50186C154.484 2.50255 154.918 2.50255 155.351 2.50186C155.609 2.50134 155.85 2.49913 156.025 2.49567C156.2 2.49221 156.296 2.48777 156.295 2.48323C156.322 2.47011 155.732 2.4708 155.219 2.47149C155.506 2.4653 155.835 2.45973 156.198 2.45493C158.239 2.42745 160.452 2.40428 162.789 2.3859C164.619 2.37555 166.011 2.34932 167.951 2.34241C168.187 2.34241 168.358 2.3362 168.561 2.33275C169.083 2.32121 169.753 2.31197 170.512 2.30584C171.272 2.2997 172.098 2.29686 172.92 2.29755C173.79 2.2582 176.016 2.26441 177.583 2.24854C178.115 2.25682 177.556 2.26096 177.547 2.2651C177.539 2.26925 177.547 2.2651 177.351 2.2651C175.874 2.30367 173.762 2.3336 171.313 2.3507C170.869 2.35609 170.449 2.36209 170.057 2.36864C169.463 2.37839 168.781 2.38633 168.042 2.39211C167.238 2.3995 166.512 2.40932 165.897 2.4211C165.534 2.4254 165.236 2.43119 165.029 2.43795C164.822 2.44471 164.714 2.45221 164.715 2.45976C164.978 2.46241 165.266 2.46428 165.567 2.46528C167.119 2.46487 168.628 2.45428 169.796 2.4356C171.83 2.40316 174.314 2.38107 176.497 2.35208C177.976 2.33318 179.566 2.31721 181.236 2.30445C181.236 2.30445 181.22 2.31204 181.218 2.31273C181.424 2.31346 181.638 2.31346 181.847 2.31273C181.847 2.31273 181.847 2.31273 181.854 2.30928C181.753 2.30728 181.619 2.30584 181.47 2.30514H180.959C181.285 2.29962 181.578 2.29133 181.935 2.28995C182.684 2.28635 183.389 2.28015 184.008 2.27173C184.627 2.26331 185.147 2.25284 185.537 2.24095C186.241 2.22325 187.143 2.2082 188.185 2.19677C188.977 2.18624 189.736 2.17494 190.458 2.16295C190.458 2.16295 190.475 2.15466 190.808 2.14638C190.459 2.14528 190.1 2.14528 189.747 2.14638C188.231 2.15673 186.714 2.16778 185.234 2.1802C184.694 2.18612 184.191 2.19307 183.736 2.20091C182.461 2.21902 181.002 2.23263 179.446 2.24095C179.446 2.24095 179.131 2.24095 178.974 2.24095C179.336 2.21886 180.87 2.21817 181.42 2.19953C181.783 2.19539 182.425 2.18918 182.391 2.18641C182.326 2.18298 182.306 2.1793 182.332 2.17564C182.358 2.17199 182.43 2.16846 182.542 2.16529C182.653 2.16212 182.803 2.1594 182.979 2.15733C183.156 2.15525 183.355 2.15387 183.562 2.15328C185.272 2.14302 186.858 2.12681 188.222 2.10565C188.746 2.09944 189.345 2.0953 189.867 2.08978C190.189 2.08683 190.477 2.08285 190.717 2.07804C191.922 2.04944 193.608 2.02813 195.523 2.0173C196.443 2.01062 197.29 2.00103 198.02 1.989C198.545 1.9821 198.806 1.989 199.199 1.989L200.83 1.97934L198.827 2.01592C199.369 2.03801 199.752 2.04284 200.474 2.03594C201.528 2.02596 202.549 2.01489 203.531 2.00281C204.258 1.99383 204.836 1.98072 205.86 1.97934C206.041 1.97895 206.211 1.97749 206.341 1.9752C207.459 1.95203 208.839 1.9332 210.388 1.91997C211.114 1.89305 212.527 1.89375 213.827 1.89236C214.179 1.87442 213.427 1.87718 212.961 1.87442C214.008 1.86268 215.057 1.84957 216.142 1.83852C216.463 1.83393 216.838 1.83067 217.237 1.82899C217.636 1.82731 218.048 1.82727 218.442 1.82886C218.637 1.8306 218.866 1.83092 219.08 1.82976C219.295 1.8286 219.479 1.82606 219.595 1.82265C220.132 1.81022 221.047 1.8047 221.473 1.78952C221.629 1.78533 221.862 1.78219 222.132 1.78067C222.402 1.77916 222.69 1.77935 222.944 1.78123C222.691 1.78583 222.469 1.79093 222.283 1.79642C221.615 1.81506 221.939 1.82886 222.931 1.84267C224.306 1.82472 225.716 1.80815 226.977 1.78814C227.674 1.7754 228.552 1.7662 229.513 1.76156C230.474 1.75693 231.48 1.75705 232.417 1.76191C232.757 1.76401 233.135 1.76376 233.476 1.7612C233.816 1.75865 234.094 1.75397 234.254 1.7481C234.346 1.74243 234.358 1.73651 234.291 1.73084H233.348C233.348 1.73084 233.361 1.72463 233.364 1.72325L234.656 1.70668C235.342 1.6984 236.064 1.6915 236.711 1.68322C237.651 1.66853 238.744 1.65726 239.925 1.65008C241.017 1.64416 242.083 1.63678 243.116 1.628C244.116 1.61971 244.787 1.59969 245.719 1.58658C246.424 1.57667 247.21 1.56874 248.048 1.56311C249.497 1.55358 250.8 1.53792 251.839 1.51755C253.239 1.54309 253.869 1.5424 254.983 1.51755L255.514 1.50789L255.696 1.51479L256.104 1.50789C256.874 1.49685 257.644 1.4858 258.452 1.47545C259.593 1.46566 260.849 1.46114 262.095 1.46233C262.331 1.46233 262.673 1.46786 262.899 1.47269C263.124 1.47752 263.639 1.49408 264.01 1.50444C263.704 1.51893 263.359 1.53343 263.13 1.54862C263.11 1.55098 263.122 1.55337 263.165 1.55559C263.207 1.55782 263.279 1.55981 263.375 1.56142C263.471 1.56304 263.588 1.56421 263.717 1.56487C263.846 1.56552 263.982 1.56563 264.116 1.56518C264.378 1.56454 264.633 1.56314 264.872 1.56104C266.037 1.54834 267.146 1.53403 268.185 1.51824C268.552 1.5092 269.076 1.50246 269.674 1.49908C270.272 1.49571 270.91 1.49589 271.486 1.49961C272.839 1.47694 274.445 1.45952 276.193 1.44853C277.981 1.42092 280.212 1.40642 281.855 1.37329C281.84 1.38019 282.057 1.38917 282.325 1.39262C282.746 1.39768 283.217 1.40141 283.716 1.40366L287.35 1.37605C287.514 1.38236 287.712 1.38837 287.941 1.394C288.101 1.39869 288.361 1.40204 288.667 1.40333C288.972 1.40461 289.299 1.40374 289.577 1.4009C290.297 1.39469 290.874 1.38226 291.772 1.38502C290.512 1.413 288.743 1.43257 286.781 1.44024C284.948 1.45018 283.206 1.46509 281.618 1.48442C281.094 1.49063 280.407 1.49961 280.27 1.50858C279.982 1.53274 279.022 1.54102 277.901 1.55069C277.016 1.55715 276.223 1.56715 275.588 1.57987C274.953 1.59259 274.494 1.60767 274.247 1.62385C274.219 1.63697 274.438 1.64525 275.228 1.64318L278.51 1.63352C278.964 1.62423 279.391 1.61455 279.79 1.60453C280.469 1.58942 281.332 1.57714 282.311 1.56864C283.29 1.56014 284.359 1.55565 285.435 1.55552C285.986 1.55552 286.536 1.55552 286.906 1.54793C287.227 1.54045 287.52 1.5326 287.781 1.52446C287.825 1.52057 287.833 1.51661 287.806 1.51272C288.015 1.51216 288.227 1.51216 288.435 1.51272C290.131 1.52791 291.343 1.51272 292.411 1.49063C292.7 1.48442 292.911 1.47752 293.201 1.47062C293.49 1.46371 293.581 1.45819 293.86 1.45612C296.093 1.44093 296.582 1.39607 298.434 1.37536C298.518 1.37282 298.566 1.36997 298.572 1.36708C298.578 1.36418 298.543 1.36133 298.469 1.35879C298.327 1.3574 298.167 1.35668 298.002 1.35668C297.837 1.35668 297.673 1.3574 297.526 1.35879C296.658 1.36423 295.913 1.37472 295.419 1.38848C295.06 1.39598 294.678 1.40313 294.273 1.40987L292.219 1.37812C294.029 1.36153 295.722 1.34112 297.26 1.31738C297.589 1.31048 298.183 1.30841 298.665 1.30357L302.203 1.2663C302.928 1.25802 303.512 1.24214 304.596 1.24973C304.596 1.24973 305.274 1.2449 305.442 1.24007C305.609 1.23524 306.333 1.20901 306.761 1.19244C307.319 1.18899 308.106 1.1883 308.435 1.1814C309.003 1.16734 309.483 1.1523 309.867 1.13653L312.05 1.12618C312.1 1.13972 312.07 1.15336 311.964 1.1669C311.841 1.1802 311.898 1.19369 312.131 1.20629C312.364 1.21889 312.765 1.23022 313.302 1.23938L315.703 1.29322C316.065 1.2944 316.444 1.29357 316.787 1.29085C317.13 1.28814 317.422 1.28366 317.621 1.27803C318.489 1.25802 319.473 1.23869 320.341 1.21867C321.56 1.21867 321.346 1.2449 322.269 1.25456H325.138C325.673 1.2801 326.211 1.30426 324.977 1.3298C324.731 1.33464 324.946 1.3443 324.734 1.35189C325.81 1.36294 326.924 1.35672 327.981 1.35879C328.415 1.3642 328.786 1.37098 329.077 1.37881C329.414 1.39182 330.034 1.40179 330.803 1.40657C331.572 1.41135 332.429 1.41055 333.188 1.40435C334.477 1.39783 335.812 1.39526 337.134 1.39676C337.586 1.39737 338.044 1.39627 338.477 1.39353C338.91 1.39079 339.308 1.38648 339.644 1.38088C340.851 1.36362 341.848 1.34222 342.568 1.31807C343.288 1.29627 344.3 1.27776 345.512 1.26423C347.673 1.26423 348.233 1.29667 349.609 1.31462L347.463 1.3443C347.434 1.3581 347.639 1.3726 346.752 1.38295C345.865 1.39331 346.362 1.40021 346.696 1.40918C346.821 1.41422 347.043 1.41827 347.325 1.42066C347.606 1.42305 347.929 1.42363 348.24 1.4223L350.14 1.41609C350.815 1.4143 351.456 1.40929 351.992 1.40162C352.528 1.39395 352.939 1.38391 353.18 1.3726C353.462 1.36122 353.871 1.35088 354.384 1.34223C355.025 1.328 355.536 1.31216 355.899 1.29529L358.561 1.28149C358.626 1.26814 358.95 1.25543 359.48 1.24549C360.009 1.23555 360.711 1.22901 361.467 1.22695L363.258 1.2166C365.247 1.20487 365.66 1.19589 366.1 1.15517L363.536 1.12273C363.815 1.10271 364.089 1.08476 364.363 1.06681C363.705 1.05387 362.858 1.04435 361.907 1.0392C361.01 1.03216 360.092 1.02594 359.156 1.02057C358.145 1.01574 357.088 1.01366 355.84 1.00952C355.611 1.00607 355.272 0.999169 354.852 0.993647C354.432 0.988414 353.996 0.983576 353.547 0.979152C353.576 0.965346 353.603 0.952922 353.395 0.939807C354.139 0.935839 354.921 0.935149 355.67 0.9378C356.419 0.940451 357.111 0.946359 357.685 0.954993C357.782 0.956582 357.898 0.957774 358.025 0.958489C358.152 0.959203 358.288 0.959423 358.423 0.959134C359.733 0.952922 360.415 0.964656 361.128 0.980532C361.593 0.987431 362.175 0.991533 362.793 0.992267C363.971 0.992267 365.142 0.996408 366.277 0.998479C366.626 0.999522 366.984 0.999522 367.338 0.998479C368.502 0.994681 369.687 0.994681 370.835 0.998479C371.205 0.998503 371.566 1.00008 371.888 1.00308C372.21 1.00609 372.483 1.01042 372.685 1.01574C372.447 1.02707 372.341 1.03904 372.374 1.05094C372.356 1.05922 373.207 1.06543 373.625 1.07234C374.043 1.07924 373.288 1.08269 373.044 1.08683C372.031 1.10133 371.859 1.10823 372.567 1.12618C372.802 1.13168 372.968 1.13801 373.055 1.14477C373.142 1.15154 373.148 1.1586 373.073 1.16552C373.018 1.19106 372.651 1.21591 372.436 1.24283C372.966 1.25249 373.816 1.2594 373.974 1.27734C374.031 1.28106 374.135 1.28447 374.279 1.28734C374.422 1.2902 374.601 1.29245 374.803 1.29391C375.328 1.29599 375.815 1.30019 376.224 1.30617C376.634 1.31216 376.956 1.31977 377.166 1.32842C377.238 1.33218 377.389 1.33526 377.59 1.33705C377.79 1.33884 378.024 1.33921 378.246 1.33809C378.51 1.33679 378.74 1.33377 378.888 1.32966C379.036 1.32555 379.09 1.32066 379.039 1.316C379.01 1.30645 378.938 1.29699 378.825 1.2877C378.841 1.2801 378.857 1.27251 378.642 1.26285C379.428 1.25786 380.269 1.2567 381.074 1.2595C381.879 1.2623 382.616 1.26895 383.206 1.27872C383.853 1.28839 384.458 1.29943 385.18 1.31117C385.13 1.33464 385.13 1.33464 386.655 1.35672L394.032 1.2877L395.627 1.29529C397.109 1.30081 397.435 1.29529 398.268 1.2732L398.817 1.25526C400.114 1.25526 401.607 1.25526 402.276 1.21798C402.597 1.23317 402.785 1.23731 402.738 1.24076C402.471 1.27209 401.915 1.30264 401.092 1.33118C400.88 1.33809 400.745 1.34637 400.494 1.35327C399.721 1.38453 399.647 1.41934 400.287 1.4506C400.597 1.46411 401.02 1.47667 401.544 1.48787C400.96 1.51918 400.143 1.54912 399.114 1.57692C398.237 1.5994 397.537 1.62379 397.034 1.64939C396.59 1.67445 395.873 1.69791 394.922 1.71842C394.437 1.72811 394.1 1.73977 393.946 1.75224C393.993 1.7804 394.238 1.80822 394.673 1.83507C394.769 1.84369 394.978 1.85173 395.284 1.85855C395.59 1.86538 395.984 1.87081 396.436 1.87442C396.436 1.87442 396.663 1.87856 396.775 1.88132C396.983 1.91361 396.792 1.94656 396.216 1.97796C396.132 1.98591 395.927 1.99339 395.623 1.99959C395.319 2.00579 394.927 2.01048 394.49 2.01316C393.572 2.02006 392.726 2.02973 391.844 2.03801C390.89 2.04619 390.07 2.05864 389.47 2.07407C388.87 2.0895 388.513 2.10732 388.434 2.12567C388.443 2.1305 388.433 2.13534 388.404 2.14017C388.385 2.14269 388.38 2.14523 388.387 2.14776L390.602 2.17813L388.415 2.22714C388.365 2.25061 389.504 2.25061 390.112 2.26027L389.809 2.27339C389.394 2.28374 388.771 2.28098 388.22 2.28167H387.67L387.646 2.29271C387.372 2.31066 386.118 2.30928 385.691 2.32516C385.264 2.34103 385.641 2.34863 386.382 2.35139C386.899 2.35384 387.445 2.35419 387.98 2.35239C388.514 2.3506 389.023 2.34672 389.469 2.34103C389.731 2.33673 389.943 2.33156 390.091 2.32585C390.972 2.29849 391.96 2.27219 393.048 2.24716C393.877 2.22646 394.947 2.20903 396.183 2.19608C396.541 2.19097 396.985 2.18816 397.438 2.18816C397.891 2.18816 398.323 2.19097 398.659 2.19608L399.301 2.18987C399.301 2.18987 399.683 2.1947 399.64 2.19677C399.499 2.22641 399.905 2.25569 400.798 2.28029L400.145 2.29133C399.185 2.29962 399.864 2.31273 399.76 2.32447C399.079 2.33068 398.171 2.33275 397.9 2.34932L397.418 2.35415H397.614L397.826 2.34724L398.79 2.35553C398.38 2.36381 398.088 2.3714 397.722 2.37762C397.521 2.38159 397.367 2.38621 397.268 2.39119C397.17 2.39618 397.129 2.40142 397.149 2.40661C397.18 2.41457 397.095 2.42263 396.9 2.43C396.706 2.43737 396.409 2.44381 396.037 2.44871C395.593 2.45424 395.372 2.46597 395.123 2.47218L396.455 2.51084C396.455 2.51084 395.866 2.51084 396.208 2.51636L396.222 2.50946L396.959 2.51429C397.497 2.51981 397.854 2.51843 398.114 2.50669C398.375 2.49496 398.35 2.50669 398.478 2.50186C398.459 2.51084 398.164 2.5205 397.91 2.52878C397.61 2.5365 397.266 2.54368 396.882 2.55018C397.726 2.57848 397.764 2.57917 396.773 2.60126C395.783 2.62335 396.193 2.6337 395.342 2.64613C394.49 2.65855 395.562 2.67167 396.156 2.6696C396.595 2.66765 397.049 2.66739 397.487 2.66882C397.924 2.67025 398.336 2.67334 398.693 2.67788L398.628 2.70825C398.366 2.70895 398.101 2.70895 397.842 2.70825C396.95 2.70273 396.137 2.69721 395.43 2.71515L395.865 2.73241L393.232 2.75105C393.36 2.76635 393.824 2.77997 394.526 2.78901C394.465 2.79935 394.443 2.80973 394.46 2.82007C394.444 2.82767 394.172 2.82628 394.009 2.82905C393.421 2.83735 392.953 2.84799 392.647 2.86003C392.34 2.87206 392.204 2.88513 392.25 2.89807C392.225 2.90981 393.222 2.92154 393.788 2.91395C395.218 2.89903 396.787 2.88896 398.41 2.88427C399.374 2.8746 399.399 2.84423 401.048 2.84492C401.13 2.85782 400.969 2.87099 400.591 2.88245C400.212 2.8939 399.635 2.90302 398.948 2.90843C399.445 2.93327 401.605 2.91533 401.817 2.94501C401.278 2.94922 400.691 2.95092 400.114 2.94995C399.538 2.94898 398.991 2.94538 398.528 2.93949C398.427 2.93788 398.303 2.93677 398.169 2.93624C398.034 2.93572 397.893 2.93581 397.758 2.9365C397.624 2.93718 397.5 2.93845 397.398 2.94018C397.297 2.94191 397.221 2.94405 397.177 2.94639C397.515 2.95398 397.889 2.96296 398.305 2.97055C398.721 2.97814 398.83 2.98228 399.106 2.98159C401.189 2.98159 402.3 3.01335 404.131 3.02094C404.603 3.02094 404.725 3.0375 404.326 3.04027C403.946 3.04279 403.61 3.0471 403.355 3.05271C403.1 3.05832 402.936 3.065 402.883 3.07202C402.621 3.08259 402.282 3.09257 401.876 3.1017C403.812 3.12472 406.068 3.13849 408.432 3.14173C408.881 3.1426 409.339 3.1409 409.739 3.1369C410.994 3.12185 412.34 3.10934 413.748 3.09963C414.245 3.09562 414.698 3.08999 415.08 3.08306C416.343 3.06235 417.405 3.06166 418.46 3.08306L420.197 3.11619C420.178 3.12517 419.955 3.13759 419.804 3.15278L421.113 3.16589L430.05 2.99195L432.127 3.03129L434.757 2.99609C434.966 2.99543 435.179 2.99543 435.385 2.99609C435.989 3.00782 436.474 3.02025 437.12 3.0306C437.765 3.04096 438.809 3.0306 439.609 3.04234C440.41 3.05407 441.135 3.04579 442.075 3.04717C442.219 3.06196 442.187 3.07724 441.979 3.09203C441.948 3.10653 441.526 3.12034 441.496 3.13414C441.555 3.14703 441.428 3.1601 441.128 3.17215C440.828 3.18421 440.363 3.19487 439.777 3.20317C438.229 3.25073 436.31 3.29443 434.078 3.33293C433.881 3.33615 433.723 3.34001 433.612 3.34428C433.502 3.34856 433.442 3.35315 433.436 3.35778C433.487 3.37036 433.377 3.38309 433.113 3.39503C432.85 3.40697 432.44 3.41783 431.913 3.42681C431.772 3.42903 431.67 3.43192 431.62 3.43509C431.423 3.43913 431.286 3.44395 431.224 3.4491C431.161 3.45424 431.175 3.45953 431.263 3.46446C431.351 3.46939 431.511 3.47378 431.728 3.47722C431.944 3.48066 432.21 3.48303 432.498 3.4841C432.92 3.48635 433.349 3.48819 433.783 3.48962C433.774 3.49377 433.37 3.49929 433.442 3.50205C433.646 3.51121 433.722 3.52116 433.667 3.5311C433.612 3.54104 433.426 3.55071 433.124 3.55934L435.661 3.62284C437.04 3.61928 438.427 3.62468 439.558 3.63803C439.575 3.64223 439.529 3.64649 439.425 3.65037C439.32 3.65424 439.16 3.6576 438.961 3.66012C438.432 3.6684 437.94 3.67806 437.371 3.68704C437.024 3.6928 436.743 3.69967 436.545 3.70726C436.346 3.71484 436.235 3.72298 436.216 3.73121L437.631 3.74916C437.25 3.76228 436.958 3.76987 436.705 3.77815C436.899 3.7868 437.207 3.79448 437.602 3.80058C437.998 3.80669 438.472 3.81106 438.988 3.81336C439.124 3.81347 439.261 3.8131 439.391 3.81227C439.521 3.81144 439.641 3.81017 439.745 3.80852C440.699 3.78505 441.943 3.79127 443.149 3.79679C444.356 3.80231 445.015 3.80645 445.908 3.81128L447.517 3.79403C447.949 3.79621 448.342 3.80015 448.665 3.80554C448.988 3.81094 449.232 3.81763 449.376 3.82509C449.344 3.84028 448.555 3.84166 448.108 3.84856C447.068 3.87028 445.649 3.88538 444.087 3.89135C443.694 3.89135 443.323 3.89964 442.959 3.90447C442.177 3.91572 441.43 3.9277 440.721 3.94036C440.259 3.94978 439.831 3.95969 439.44 3.97004C439.399 3.98937 441.182 3.98247 440.234 4.00318C440.587 4.00318 440.736 4.00732 440.902 4.00318C442.06 4.00147 443.18 3.99405 444.13 3.98178C445.951 3.95728 448.061 3.94048 450.286 3.93277C452.686 3.92365 454.948 3.90472 456.888 3.87755C457.631 3.86838 458.478 3.86225 459.363 3.8596C460.414 3.85804 461.443 3.85263 462.383 3.84373C462.692 3.8401 463.042 3.83777 463.406 3.83693C463.77 3.83609 464.136 3.83676 464.476 3.83889C464.466 3.84373 464.176 3.85063 464.252 3.85201C465.344 3.8741 465.869 3.90447 467.484 3.92104C468.545 3.92104 469.763 3.92104 470.365 3.89688C470.966 3.87272 470.676 3.86167 469.198 3.83613C469.482 3.83209 469.834 3.82988 470.193 3.82988C470.552 3.82988 470.895 3.83209 471.162 3.83613L472.422 3.85339L473.564 3.87065C473.531 3.88652 473.504 3.89895 473.476 3.91206C473.408 3.92646 473.597 3.9407 474.018 3.95279C474.268 3.95914 474.491 3.96583 474.683 3.97281C475.462 4.00057 475.776 4.03188 475.59 4.06323C475.184 4.10998 474.547 4.15618 473.685 4.20128C472.764 4.24615 472.348 4.29378 471.622 4.33933C471.245 4.36064 470.767 4.38142 470.193 4.40146C469.121 4.44356 467.931 4.48567 466.857 4.52846C465.784 4.57126 464.527 4.60784 463.303 4.64719C461.454 4.69866 459.433 4.74822 457.25 4.79559C455.919 4.83011 454.548 4.86462 453.332 4.90051C451.892 4.94181 450.159 4.97986 448.179 5.01372C446.441 5.04663 444.914 5.08275 443.627 5.1214C443.492 5.12552 443.39 5.12994 443.324 5.13451C443.163 5.16007 442.531 5.18431 441.526 5.20354C441.614 5.2094 441.72 5.21516 441.843 5.22079C442.017 5.22718 442.076 5.23442 442.012 5.24155C441.947 5.24869 441.763 5.25541 441.483 5.26083C440.679 5.27635 440.029 5.2941 439.563 5.31329C439.386 5.31882 439.287 5.32498 439.273 5.33123C439.26 5.33749 439.333 5.34364 439.487 5.34918C439.626 5.3551 439.66 5.36168 439.583 5.36808C439.507 5.37448 439.323 5.3804 439.056 5.38507C438.384 5.40035 437.658 5.41488 436.881 5.42856C435.23 5.458 433.268 5.48148 431.114 5.49759C430.879 5.49759 430.668 5.50449 430.392 5.50449C428.855 5.51201 427.458 5.52711 426.37 5.54798C425.073 5.56661 423.703 5.58249 422.329 5.60044C420.332 5.6235 418.515 5.65114 416.927 5.68258C415.017 5.69362 414.044 5.72606 412.471 5.74539C411.024 5.76492 409.664 5.78639 408.404 5.80958C406.364 5.84479 404.327 5.87861 402.324 5.91519C400.423 5.94401 398.695 5.97617 397.168 6.01114C396.587 6.02564 395.443 6.02771 395.086 6.04772C394.729 6.06774 393.886 6.07602 393.229 6.08914L391.144 6.1271C390.789 6.13444 390.393 6.14115 389.962 6.14712C387.983 6.17197 386.687 6.20855 384.863 6.23478H384.667C381.514 6.30392 377.837 6.36526 373.747 6.41701C371.387 6.45498 368.766 6.48604 366.25 6.52331C365.695 6.54402 364.2 6.54471 363.487 6.56611C362.773 6.58751 361.501 6.59441 360.528 6.60821C359.556 6.62202 358.617 6.63859 357.569 6.65101C356.659 6.66201 355.912 6.67672 355.395 6.69381C354.189 6.72626 352.679 6.75499 350.93 6.77871C348.621 6.81115 346.461 6.84773 344.086 6.87396C344.168 6.88607 344.063 6.89846 343.783 6.90987C343.504 6.92127 343.058 6.93127 342.494 6.93885C339.982 6.97405 337.736 7.01409 335.187 7.0486L334.501 7.05688L326.862 7.15628C324.802 7.18251 322.821 7.20874 320.72 7.23566C319.895 7.23566 319.938 7.25223 319.38 7.25568C319.197 7.24946 319.004 7.24808 318.752 7.25568L318.729 7.26603L310.029 7.38407C306.639 7.43463 303.047 7.48077 299.282 7.52212C298.396 7.53376 297.578 7.54695 296.84 7.56146C296.145 7.57188 295.416 7.58156 294.657 7.59045C293.622 7.60036 292.615 7.61119 291.64 7.62289C289.091 7.65741 286.393 7.68778 283.576 7.71884C280.759 7.7499 278.651 7.78027 276.152 7.80995C274.459 7.82997 272.768 7.84861 271.003 7.86587C270.16 7.87415 269.093 7.87691 268.213 7.88381C267.334 7.89071 267.052 7.89417 266.959 7.90107C266.641 7.92109 265.655 7.92247 264.893 7.93006C263.406 7.94525 263.176 7.94248 262.623 7.90728L264.386 7.87277C264.814 7.86332 265.37 7.85588 265.999 7.85117C266.629 7.84645 267.311 7.84462 267.98 7.84585C268.245 7.84664 268.517 7.8465 268.783 7.84544C269.048 7.84437 269.301 7.8424 269.526 7.83964C271.346 7.81548 273.131 7.78925 274.873 7.7644L275.121 7.75888L275.001 7.72298C274.755 7.72227 274.503 7.72227 274.254 7.72298L265.354 7.80581C263.31 7.82445 261.162 7.83688 259.157 7.85551C257.152 7.87415 256.071 7.88381 254.51 7.89693C253.849 7.90166 253.171 7.90558 252.481 7.90866C252.507 7.90476 252.515 7.90083 252.506 7.89693C252.52 7.89071 252.537 7.88243 252.229 7.87967C251.884 7.87467 251.441 7.87221 250.986 7.87277C250.564 7.8746 250.159 7.87763 249.788 7.88174C247.989 7.90025 245.876 7.90594 243.899 7.89762L243.328 7.92592C240.491 7.94801 237.613 7.97079 234.653 7.99494C234.058 7.99899 233.423 8.00064 232.796 7.99978C232.128 7.99978 231.479 7.9908 230.773 7.99011C230.085 7.99179 229.406 7.9948 228.75 7.99909C228.904 7.99172 229.117 7.98474 229.384 7.97838C229.653 7.97403 229.839 7.96834 229.916 7.96214C229.993 7.95593 229.956 7.94953 229.811 7.94387C229.556 7.9342 229.421 7.92385 229.868 7.91695C230.276 7.90914 230.552 7.89954 230.664 7.88926C230.777 7.87899 230.721 7.86848 230.502 7.85896C230.4 7.8531 230.321 7.8471 230.266 7.84102H230.069C229.358 7.82445 228.087 7.83066 227.124 7.82169C226.683 7.82103 226.236 7.82297 225.855 7.82721C224.856 7.8348 223.892 7.84447 222.856 7.85137C222.361 7.85476 221.837 7.8564 221.313 7.8562C220.566 7.8562 220.488 7.8562 219.954 7.82997C220.6 7.82278 221.092 7.81197 221.348 7.7994C221.604 7.78682 221.608 7.77323 221.359 7.76095C220.706 7.73541 220.017 7.70849 217.528 7.7147C218.307 7.70416 219.053 7.69287 219.761 7.68088C219.968 7.67764 220.117 7.6734 220.186 7.66874C220.255 7.66407 220.243 7.6592 220.15 7.65477C220.056 7.65034 219.887 7.64657 219.665 7.64395C219.442 7.64134 219.177 7.64001 218.905 7.64015C217.568 7.63734 216.199 7.64117 214.952 7.6512C213.908 7.66155 212.978 7.67397 211.768 7.68847H210.275C210.283 7.68433 210.054 7.68157 210.099 7.67881C210.386 7.65465 210.712 7.63049 211.043 7.60426C210.341 7.60069 209.718 7.59368 209.245 7.58404C208.772 7.57439 208.469 7.5625 208.37 7.54973C208.319 7.54613 208.314 7.54234 208.356 7.53864C208.398 7.53495 208.485 7.53142 208.612 7.52833C208.978 7.52123 209.249 7.5128 209.405 7.50371C209.56 7.49461 209.596 7.48509 209.51 7.47587L208.261 7.45309C204.82 7.46752 201.467 7.48859 198.264 7.5159L195.379 7.54213C194.998 7.53661 195.088 7.53109 195.411 7.52695C195.734 7.52281 196.656 7.51452 197.298 7.50831C197.855 7.5036 198.338 7.49648 198.701 7.48765C199.064 7.47882 199.295 7.46858 199.37 7.45792L198.254 7.42824C198.272 7.41996 198.297 7.40822 198.82 7.4027C199.171 7.39754 199.418 7.3905 199.52 7.38274C199.623 7.37498 199.574 7.36693 199.382 7.35991C199.334 7.35374 199.347 7.34743 199.422 7.34127C200.189 7.33161 200.955 7.32263 201.645 7.31228C201.968 7.30772 202.233 7.30203 202.423 7.2956C202.613 7.28916 202.723 7.28214 202.746 7.275C202.747 7.2683 202.658 7.26175 202.486 7.25587C202.314 7.25 202.065 7.24496 201.757 7.24118C200.63 7.24549 199.63 7.2574 198.975 7.27431C198.756 7.28404 198.377 7.29247 197.887 7.29851C197.397 7.30455 196.819 7.30791 196.231 7.30814C195.557 7.30835 194.901 7.31278 194.38 7.32062C193.859 7.32847 193.508 7.33922 193.389 7.35093C192.712 7.35507 192.114 7.35922 191.519 7.36198C190.815 7.36489 190.163 7.37109 189.634 7.37992C188.778 7.39195 187.846 7.40215 186.857 7.41029C184.014 7.43514 181.17 7.46068 178.436 7.48967C177.712 7.49727 177.101 7.50762 176.38 7.51383C175.66 7.52005 175.121 7.53316 174.182 7.53109C174.005 7.53114 173.83 7.53192 173.67 7.53336C173.51 7.5348 173.37 7.53685 173.261 7.53937C171.736 7.56827 169.909 7.59174 167.887 7.6084C165.149 7.63946 162.297 7.66845 159.557 7.7002C158.759 7.71084 158.011 7.72262 157.321 7.73541C156.793 7.74447 156.237 7.75299 155.655 7.76095C155.21 7.76716 154.771 7.76992 154.901 7.78303C155.03 7.79615 154.324 7.79546 153.927 7.79753C152.569 7.80674 151.174 7.8139 149.755 7.81893C148.353 7.82271 146.998 7.8314 145.771 7.84447C144.886 7.85413 143.99 7.86863 142.784 7.86311C142.8 7.85551 142.816 7.84792 143.035 7.83756C142.033 7.82836 140.912 7.82356 139.764 7.82356C138.616 7.82356 137.474 7.82836 136.433 7.83756L134.867 7.81617C134.501 7.81585 134.132 7.81685 133.782 7.81911C133.433 7.82136 133.111 7.82482 132.835 7.82928C132.621 7.83244 132.353 7.83418 132.078 7.83418C131.804 7.83418 131.543 7.83244 131.342 7.82928C131.047 7.82575 130.695 7.82387 130.332 7.82387C129.968 7.82387 129.609 7.82575 129.299 7.82928C128.308 7.83682 127.23 7.83968 126.177 7.83756C125.885 7.83239 125.69 7.82578 125.615 7.81855C125.54 7.81131 125.587 7.80376 125.753 7.79684C126.016 7.78495 126.142 7.77234 126.121 7.75976C126.101 7.74718 125.935 7.73491 125.633 7.72367C125.474 7.71647 125.4 7.70872 125.417 7.70089C125.433 7.69306 125.54 7.68532 125.731 7.67812C126.426 7.64705 126.171 7.63739 124.761 7.61668C124.532 7.61316 124.261 7.61055 123.967 7.609C123.672 7.60746 123.361 7.60702 123.051 7.60771C122.329 7.61026 121.622 7.61419 120.944 7.61944C120.551 7.61944 120.179 7.62773 119.74 7.63118C117.542 7.64843 117.171 7.63808 116.353 7.61599L115.758 7.60012C114.743 7.59367 113.65 7.59133 112.559 7.59323C111.467 7.59514 110.405 7.60127 109.447 7.61116C109.069 7.61559 108.622 7.61777 108.177 7.61737C106.73 7.61715 105.286 7.62232 103.94 7.63256C103.102 7.63928 102.18 7.64168 101.286 7.63948C100.391 7.63727 99.5617 7.63056 98.8967 7.62013C98.2992 7.61073 97.5423 7.60493 96.7314 7.60357C95.7883 7.60357 95.6562 7.59183 96.1223 7.57596C96.5884 7.56008 97.3836 7.5373 98.0928 7.51798C98.34 7.51133 98.4796 7.50369 98.4962 7.49589C98.5128 7.48809 98.4058 7.48044 98.187 7.4738C98.0104 7.46005 97.9348 7.44591 97.9623 7.43169C97.983 7.42568 97.9301 7.4197 97.8071 7.41416C97.6841 7.40863 97.4939 7.40366 97.2493 7.39961C97.0047 7.39555 96.7114 7.3925 96.3892 7.39065C96.067 7.3888 95.7233 7.3882 95.3814 7.3889C93.9274 7.3889 92.5127 7.3889 91.0485 7.39373C90.4324 7.39512 89.8117 7.39512 89.2015 7.39373C87.939 7.38734 86.6073 7.38546 85.2836 7.38821C84.6568 7.38986 84.0273 7.38713 83.5316 7.38061C81.9888 7.36555 80.5512 7.3475 79.245 7.32677C78.921 7.31937 78.5108 7.31328 78.04 7.30888C77.5693 7.30449 77.0482 7.30189 76.5094 7.30123C76.0772 7.30123 75.699 7.29433 75.3526 7.29088C75.0568 7.2768 74.9726 7.26149 75.1078 7.2464C75.2431 7.23131 75.5935 7.21693 76.126 7.2046C76.6255 7.19148 77.0871 7.17768 77.5095 7.16387C78.0313 7.15054 78.6668 7.13866 79.3923 7.12867C80.2432 7.11465 80.8431 7.09661 81.1138 7.0769C78.6381 7.0769 76.2312 7.06309 74.1928 7.09761L72.5176 7.0907C72.5412 7.07966 72.5618 7.07 72.5809 7.06102C72.8978 7.0413 72.9417 7.0207 72.7089 7.00097C72.5449 6.99205 72.52 6.98243 72.6365 6.9731C72.753 6.96376 73.0069 6.95504 73.3724 6.94782C75.4928 6.89329 77.9958 6.84359 79.9634 6.78699C80.5954 6.77321 81.3514 6.76131 82.1996 6.75179C83.0106 6.74005 82.9221 6.72625 81.9137 6.72004C81.3502 6.71723 80.7781 6.71492 80.1993 6.71313C77.7827 6.74074 76.9607 6.79458 74.1643 6.81598L72.6777 6.77595C72.3295 6.77924 71.9935 6.78293 71.6717 6.78699L67.1436 6.86499C66.7636 6.87074 66.4791 6.87819 66.3225 6.88648C66.1659 6.89478 66.1434 6.9036 66.2576 6.91193C66.3321 6.92291 66.3083 6.93408 66.187 6.94506C66.1106 6.95264 66.2073 6.96033 66.4558 6.96646C67.0158 6.98026 66.4043 6.99062 66.0301 7.00028C65.9314 7.00197 65.8154 7.00331 65.6886 7.00423C65.5619 7.00515 65.427 7.00562 65.2917 7.00562C65.1564 7.00562 65.0236 7.00515 64.9007 7.00423C64.7779 7.00331 64.6675 7.00197 64.5761 7.00028C63.8122 6.98993 63.1313 6.9775 62.3719 6.96508C62.78 6.93954 62.0878 6.914 62.7739 6.88708C62.8446 6.8825 62.8618 6.87775 62.8244 6.87312C62.787 6.86849 62.6957 6.86408 62.5562 6.86016C62.1963 6.85003 61.9987 6.83832 61.9831 6.8262C61.9676 6.81408 62.1346 6.80199 62.4675 6.79113L62.4837 6.78354C61.4492 6.77112 61.6186 6.74696 61.1519 6.72625L60.1812 6.72073C57.7713 6.7083 57.7698 6.70899 55.8306 6.73384C55.3812 6.72349 55.8705 6.7152 56.2374 6.70899L59.3009 6.65446C61.3029 6.61857 63.3776 6.58544 65.6459 6.55368C67.9142 6.52193 70.4069 6.47706 72.7292 6.43841C72.8455 6.43618 72.9309 6.43351 72.978 6.43063C73.0252 6.42775 73.0328 6.42474 73.0002 6.42184C72.8934 6.41958 72.7581 6.41778 72.6042 6.41659C72.4503 6.41539 72.2818 6.41483 72.1111 6.41494C71.3252 6.41494 70.5319 6.41839 69.7023 6.42046L68.1594 6.4253L67.6343 6.41356C67.2953 6.40666 67.0423 6.3963 66.6159 6.39354C66.2667 6.39186 65.8948 6.39187 65.5387 6.39357C65.1826 6.39527 64.8554 6.39859 64.5912 6.40321C63.8574 6.41563 63.2007 6.42875 62.5047 6.44186C61.8087 6.45498 61.4344 6.46464 60.8244 6.4743C59.5715 6.49043 58.3672 6.50771 57.2167 6.52607C56.2727 6.54812 55.4097 6.57118 54.6332 6.5951C54.1366 6.60683 53.6778 6.61926 52.7666 6.62271C52.3225 6.62124 51.9282 6.61704 51.6537 6.61085C51.3792 6.60466 51.2421 6.59688 51.2669 6.58889C51.2923 6.58255 51.4091 6.57637 51.6064 6.57094C51.8036 6.5655 52.0747 6.56099 52.3941 6.55782C53.2771 6.54609 54.0839 6.53266 54.798 6.51779C55.7823 6.49457 57.0133 6.47486 58.4189 6.45981C58.8993 6.45567 59.195 6.446 59.6027 6.4391C60.0104 6.4322 60.3438 6.42322 60.8198 6.42115C62.2914 6.41287 62.9279 6.39078 63.7551 6.37146C64.0315 6.36397 64.1876 6.35538 64.2063 6.34661C64.225 6.33784 64.1055 6.32924 63.861 6.32176C63.3877 6.30669 62.8253 6.29258 62.1825 6.27965C61.8534 6.27345 61.444 6.26873 60.9865 6.26586C60.529 6.26298 60.0358 6.26203 59.5455 6.26308C59.2163 6.25433 59.0199 6.24419 58.9739 6.23359C58.9279 6.22298 59.0339 6.21224 59.2821 6.20234C59.9216 6.17887 60.481 6.15609 62.0749 6.14574C62.8215 6.14013 63.5149 6.13243 64.1275 6.12296C65.4929 6.10366 67.1031 6.09059 68.8062 6.085C69.2467 6.08351 69.6754 6.08096 70.0799 6.0774C72.9637 6.05187 75.6961 6.02356 78.4315 5.99388C79.88 5.97801 81.333 5.96006 82.8557 5.94626C86.4237 5.91312 89.6208 5.86964 93.0419 5.83167C94.8335 5.81176 96.4078 5.78624 97.6821 5.75643C97.9229 5.74869 98.1242 5.7406 98.2837 5.73227C97.343 5.72678 96.3284 5.72567 95.3373 5.72905C94.3461 5.73243 93.4116 5.7402 92.6232 5.7516C92.2031 5.76136 91.641 5.76898 90.9997 5.77362C90.3584 5.77825 89.6631 5.77971 88.9913 5.77783L90.8185 5.75022C92.0342 5.73297 93.2862 5.71709 94.464 5.69914C96.3335 5.67015 98.0501 5.63909 99.9952 5.61148C101.564 5.58874 102.944 5.56223 104.093 5.53279C104.922 5.51142 105.887 5.49173 106.968 5.47412C107.74 5.46238 107.74 5.46238 108.154 5.43408C107.703 5.42442 107.183 5.42856 106.7 5.43408C103.774 5.45979 101.017 5.49129 98.4835 5.52796C97.196 5.54399 96.0754 5.56387 95.1754 5.58663C94.9627 5.59422 94.363 5.59905 93.8826 5.6032C92.3863 5.61871 90.9675 5.6365 89.6432 5.65635C87.8163 5.68486 85.7495 5.70817 83.5229 5.72537C83.0646 5.71916 83.5465 5.71433 83.5553 5.71019C85.2253 5.68258 86.8575 5.65428 88.5654 5.62736C89.0303 5.61949 89.532 5.61233 90.0649 5.60596C92.0683 5.58581 93.6858 5.5554 94.6908 5.51899C94.7114 5.50932 95.4349 5.50173 95.7306 5.49207C95.8678 5.48513 95.9492 5.47793 95.9727 5.47067C95.446 5.45962 94.922 5.46584 94.5187 5.47067C93.3558 5.48659 92.2437 5.50365 91.1876 5.52175C90.2064 5.53868 89.1045 5.55331 87.9118 5.56523C87.0296 5.57352 86.2958 5.58594 85.4107 5.5956C84.925 5.59938 84.4179 5.60216 83.8998 5.60389C84.4142 5.58559 85.1463 5.56933 86.0448 5.55626C86.7059 5.54107 87.5576 5.52865 87.5988 5.50932C87.2249 5.50035 86.8624 5.50449 86.577 5.50932C85.9722 5.51655 85.3913 5.52438 84.8373 5.53279C83.663 5.55074 82.3768 5.56627 81.0055 5.57904C80.2855 5.58631 79.6086 5.59487 78.9862 5.60458C77.5682 5.62459 76.2228 5.64737 74.9256 5.66601C72.257 5.70121 69.8533 5.74125 67.2996 5.77783C66.7318 5.78612 66.2366 5.79716 65.4492 5.79785C64.6618 5.79854 64.6241 5.79785 64.515 5.79371C64.2704 5.78755 64.1742 5.77989 64.2463 5.77231C64.3732 5.76451 64.6524 5.75766 65.034 5.75298C67.2996 5.71576 69.4318 5.6761 71.4174 5.63426C72.307 5.61996 73.0711 5.60343 73.6831 5.58525C74.1727 5.57191 74.7677 5.55982 75.4494 5.54936C76.4332 5.53213 77.4649 5.51578 78.5404 5.50035C79.0402 5.493 79.4547 5.48402 79.7596 5.47394C80.0645 5.46387 80.2537 5.4529 80.3159 5.44168L78.8595 5.42442C78.6447 5.42538 78.4323 5.42654 78.2234 5.42787L67.2793 5.58456L66.1889 5.59836C64.9835 5.61079 64.6721 5.60941 63.389 5.58456C65.9474 5.54431 67.8851 5.49338 69.0089 5.43684C68.6842 5.43612 68.3542 5.43612 68.0264 5.43684C65.9171 5.45204 63.9483 5.47302 62.196 5.49897C61.1463 5.51208 60.0604 5.52382 58.9729 5.53624C59.2179 5.51346 60.4552 5.50449 61.2312 5.49068C63.0989 5.46122 64.7204 5.42727 66.0438 5.38991C66.4965 5.3761 67.0816 5.36372 67.7721 5.35332C68.4683 5.34423 69.0334 5.33237 69.4186 5.31878C69.8037 5.30518 69.997 5.29027 69.9818 5.27532C69.9976 5.26144 70.0931 5.24756 70.2666 5.23391C69.8251 5.22281 69.1618 5.21507 68.4011 5.21214C67.6404 5.20922 66.8346 5.21131 66.135 5.21803C64.6301 5.22938 63.0544 5.23727 61.448 5.2415C60.6475 5.24352 59.8738 5.24846 59.1772 5.256C58.5633 5.26273 57.848 5.26584 57.1407 5.26484C56.4333 5.26385 55.7726 5.2588 55.2593 5.25047C54.5726 5.24081 53.9266 5.23046 53.2806 5.2201C52.6346 5.20975 51.8782 5.19594 51.1202 5.18283C50.5107 5.18668 49.9214 5.19154 49.3603 5.19732C48.9294 5.20332 48.4143 5.20709 47.8758 5.20819C47.3373 5.2093 46.7978 5.20768 46.3211 5.20354C46.5441 5.19111 46.8049 5.17938 47.0716 5.16488C46.5947 5.15571 46.2329 5.14486 46.0082 5.133C45.7835 5.12113 45.7007 5.10849 45.7648 5.09586C45.7883 5.08481 45.2631 5.07308 45.0524 5.06134C44.8032 5.05204 44.7229 5.04152 44.8221 5.03118C44.9213 5.02083 45.1954 5.01114 45.6083 5.00336C46.1142 4.9921 46.5129 4.9795 46.788 4.96609C46.8816 4.96234 46.9211 4.95827 46.9027 4.95426C46.8843 4.95025 46.8087 4.94642 46.6829 4.94313C46.557 4.93983 46.3848 4.93717 46.1821 4.9354C45.9794 4.93362 45.7527 4.93278 45.5226 4.93296C44.8199 4.93406 44.1313 4.93758 43.4964 4.94331C42.4017 4.95297 41.3579 4.96333 40.365 4.97437C39.2657 4.98624 38.0177 4.99291 36.7478 4.9937C35.6082 4.9937 34.5865 4.9937 33.9582 4.97506C33.3299 4.95642 32.4811 4.96747 31.7565 4.95711C32.0618 4.93625 32.6722 4.91697 33.5262 4.9012C34.091 4.89245 34.5497 4.88179 34.8728 4.8699C35.1958 4.85801 35.3762 4.84516 35.4024 4.83218L33.2198 4.80526C31.5404 4.80043 30.732 4.82942 28.9794 4.84046L30.6759 4.80043C30.7043 4.79814 30.7093 4.79581 30.6906 4.79352C30.3741 4.75763 30.0701 4.7528 28.1824 4.75349H27.1214L25.4606 4.75832C25.1738 4.75363 24.965 4.74766 24.8551 4.741C24.7452 4.73434 24.7379 4.72722 24.8342 4.72036C25.0344 4.70835 25.0613 4.69577 24.9122 4.68377C24.7231 4.67691 24.6796 4.66901 24.789 4.66144C24.8984 4.65388 25.154 4.64712 25.5113 4.64236C25.7952 4.63821 25.778 4.62786 25.9121 4.62027C26.0369 4.61052 26.2789 4.60129 26.6217 4.59319C26.9644 4.58509 27.3998 4.57832 27.8983 4.57333C29.3601 4.55657 30.7192 4.53713 31.9515 4.51535H31.7157C33.0489 4.50542 34.2772 4.49139 35.3407 4.47393C36.4021 4.4553 37.8055 4.44218 38.9426 4.42492C39.8819 4.41445 40.5651 4.39811 40.8473 4.37937C41.1213 4.36142 42.3237 4.35038 43.2452 4.34209C43.7916 4.33733 44.3162 4.33179 44.8132 4.32553C45.4696 4.31432 46.3168 4.30725 47.2136 4.30551C47.483 4.30505 47.7436 4.30339 47.9706 4.30068C50.1804 4.2779 52.3888 4.25581 54.5623 4.23165C55.0581 4.22454 55.654 4.21999 56.2799 4.21854C56.5434 4.218 56.7943 4.21608 56.9991 4.21301C60.4001 4.16608 64.3188 4.13433 67.6441 4.08601C68.0436 4.07924 68.4924 4.07343 68.9777 4.06875C70.0765 4.06042 71.0038 4.04612 71.6188 4.02803C71.9509 4.01834 72.3918 4.0099 72.9134 4.00324C73.435 3.99659 74.0259 3.99186 74.6484 3.98937C75.6781 3.9836 76.61 3.97311 77.3459 3.959C78.8005 3.93665 80.3415 3.91612 81.9567 3.89757C82.4538 3.89244 82.8811 3.88541 83.2056 3.87703C83.5301 3.86865 83.7431 3.85915 83.828 3.84925C83.377 3.83958 82.9375 3.84304 82.5313 3.84925C80.9256 3.86512 79.3213 3.88031 77.752 3.89757C76.3357 3.90997 74.9879 3.92477 73.7282 3.94174C73.1069 3.95127 72.3052 3.95623 71.4981 3.95555C70.5075 3.95431 69.5127 3.95973 68.715 3.97073C68.121 3.97823 67.4886 3.9847 66.8268 3.99006C66.3979 3.99209 65.9504 3.99209 65.5301 3.99006C65.3624 3.989 65.1825 3.98858 65.0022 3.98882C64.8219 3.98906 64.6451 3.98995 64.4829 3.99145C64.3207 3.99294 64.1766 3.995 64.0602 3.9975C63.9437 3.99999 63.8574 4.00287 63.8065 4.00594C63.2776 4.03286 61.889 4.03907 60.7243 4.0508C58.8646 4.03838 57.65 4.07358 55.9588 4.07427C55.826 4.07457 55.6969 4.07533 55.5795 4.07652C55.4621 4.0777 55.3589 4.07929 55.276 4.08118C52.185 4.13018 48.4962 4.1647 45.2205 4.20818C44.8598 4.21312 44.4311 4.21623 43.9832 4.21716C41.0546 4.22287 38.3118 4.24748 36.2911 4.28618C36.0435 4.29046 35.7568 4.29396 35.4438 4.29654C33.9835 4.30237 32.6109 4.31421 31.4406 4.33105C29.5873 4.35245 27.8112 4.37454 25.9216 4.39455C24.6118 4.40645 23.4901 4.42406 22.669 4.44563C22.6587 4.45046 22.0648 4.45253 21.6222 4.45737C21.3255 4.44908 21.0667 4.44149 20.767 4.43459C20.486 4.42497 20.0881 4.4166 19.6003 4.41005C19.1125 4.4035 18.5464 4.39892 17.94 4.39662C16.9183 4.39662 16.7556 4.38075 17.4152 4.36625C19.098 4.3243 21.2811 4.28916 23.804 4.2634C25.9004 4.23855 28.0362 4.21371 30.1689 4.19024C31.415 4.17712 32.7367 4.16539 33.9451 4.15158C34.3577 4.14822 34.7843 4.14545 35.2202 4.1433C35.7577 4.14132 36.2725 4.13757 36.7371 4.13225C38.2117 4.11074 39.8848 4.09391 41.6765 4.08256C42.3273 4.07695 42.9471 4.07025 43.5268 4.06254C44.8944 4.04332 46.3954 4.0273 47.9901 4.01491C48.9799 4.00683 49.9333 3.99737 50.8406 3.98661C51.1623 3.98316 51.4114 3.97695 51.7287 3.97557C54.5364 3.96728 56.3915 3.92656 58.8706 3.90654C60.068 3.89487 61.2026 3.88123 62.2583 3.86581C64.3383 3.84093 66.486 3.81789 68.6929 3.79679C71.6174 3.77056 74.286 3.73536 77.0607 3.70567C77.6087 3.69986 78.1346 3.6934 78.6345 3.68635C81.0599 3.6503 83.7268 3.61968 86.5701 3.59523C87.2129 3.58891 87.7791 3.58038 88.2337 3.57016C88.6882 3.55995 89.0211 3.54827 89.2116 3.53587C89.2825 3.52808 89.1873 3.52021 88.9443 3.51378C88.5542 3.50654 88.1202 3.50006 87.6495 3.49446L71.8822 3.64631C71.2185 3.65232 70.5745 3.65901 69.9534 3.66633C68.1268 3.68797 66.2345 3.70779 64.286 3.72569C62.3615 3.74364 60.5446 3.76642 58.6928 3.78713C58.1471 3.79316 57.5844 3.79869 57.0071 3.80369C53.0963 3.83532 49.3035 3.87153 45.6551 3.91206C44.1236 3.93001 42.4452 3.94312 40.8773 3.95969C39.3094 3.97626 37.1737 4.00111 35.3205 4.0225L29.5933 4.09153C28.4651 4.10464 27.3731 4.11914 26.2827 4.13294C24.777 4.10188 24.278 4.09636 22.4296 4.09705C21.7951 4.09674 21.1619 4.09961 20.6043 4.10533C18.8616 4.13018 16.5981 4.14123 14.9399 4.16332C13.9307 4.1744 13.0976 4.18988 12.5258 4.20818C12.0259 4.22316 11.4428 4.23727 10.7855 4.25029C8.78036 4.23234 8.51752 4.20818 9.87169 4.18126C10.2401 4.17436 10.7627 4.16884 11.0161 4.16056C11.1609 4.15563 11.3678 4.15131 11.6205 4.14796C11.8732 4.1446 12.1646 4.1423 12.4719 4.14123C13.4367 4.13651 14.3233 4.12746 15.0429 4.115C15.7147 4.10188 16.5616 4.09189 17.5017 4.08601C18.209 4.08601 18.7597 4.06737 19.3319 4.05702C19.9041 4.04666 20.3613 4.03493 21.3089 4.03286C21.4829 4.03262 21.6531 4.03169 21.8062 4.03013C21.9594 4.02858 22.0916 4.02644 22.1925 4.02388C23.1518 4.00634 24.3249 3.99286 25.6166 3.98454C27.5833 3.96799 29.4052 3.94634 31.0192 3.92035C31.9787 3.90305 32.7774 3.88323 33.3841 3.86167C33.5463 3.85495 33.8025 3.84901 34.1282 3.84442C35.7871 3.82744 37.6173 3.81662 39.501 3.81267C40.2122 3.8116 40.9169 3.80905 41.5999 3.80507C43.0062 3.79756 44.3524 3.78664 45.5987 3.77263C47.405 3.75106 49.2982 3.7319 51.2616 3.71534C52.4718 3.70471 53.6293 3.69223 54.7205 3.67806C55.8442 3.66406 57.0568 3.65246 58.3308 3.64355C59.5936 3.63359 60.6787 3.61753 61.4552 3.5973C61.7026 3.58847 61.8937 3.5792 62.0249 3.56969C60.1098 3.56692 58.1786 3.57703 56.6202 3.59799C56.019 3.60352 55.5312 3.61111 54.8676 3.60904L54.8603 3.61249C54.7435 3.61608 54.5571 3.61883 54.3367 3.62023C54.1163 3.62163 53.8773 3.62158 53.6652 3.62008C53.6932 3.60697 53.7197 3.59454 53.7388 3.58557C54.9379 3.57269 56.0963 3.55863 57.2081 3.54346C58.1414 3.52966 59.5034 3.53587 60.2883 3.51792C61.9186 3.50895 62.8783 3.48272 64.321 3.46961C65.7636 3.45649 67.3865 3.45097 68.8292 3.43785C70.083 3.4251 71.2941 3.41104 72.4556 3.39575C72.8514 3.38914 73.3171 3.38397 73.824 3.38056C74.5413 3.37699 75.1944 3.36999 75.7084 3.36034C76.2224 3.3507 76.5765 3.33881 76.7303 3.32603C76.5107 3.31844 76.217 3.30878 75.8839 3.29911C76.364 3.28211 77.138 3.26807 78.0912 3.25908L79.4233 3.24251C79.7779 3.23854 80.0371 3.23239 80.1472 3.22532C80.2574 3.21826 80.2101 3.21082 80.0151 3.20455C77.3272 3.1935 77.2166 3.19005 75.4617 3.23906L72.9492 3.25632L72.99 3.25563ZM430.811 3.68566L430.795 3.69325L430.813 3.68497H431.245L431.255 3.68013L430.811 3.68566ZM358.978 1.30702C358.364 1.30633 357.748 1.30633 357.131 1.30702C356.972 1.30789 356.826 1.30941 356.706 1.31145C356.585 1.3135 356.493 1.316 356.438 1.31876C356.42 1.32704 356.771 1.32842 357.085 1.32842C357.483 1.32873 357.882 1.32716 358.241 1.32389C358.601 1.32061 358.907 1.31574 359.129 1.30979L359.458 1.30288L358.978 1.30702ZM65.263 6.80701C65.6526 6.80368 66.0182 6.79951 66.3506 6.79458C67.8168 6.77042 69.2087 6.74419 70.7141 6.72004C72.5855 6.68217 74.7774 6.64955 77.2076 6.6234C78.1581 6.61347 78.9384 6.59911 79.4572 6.58198C79.7704 6.57238 80.1895 6.56392 80.6891 6.55713L87.0194 6.46326C87.4013 6.45499 87.7242 6.44594 87.9806 6.43634C87.3912 6.43634 86.9982 6.43634 86.7625 6.43634C86.2918 6.4412 85.8977 6.44811 85.6195 6.45636C85.3318 6.46813 84.8063 6.47774 84.1474 6.48328C83.4837 6.48929 82.8397 6.49597 82.2186 6.50329C81.0481 6.51779 79.8745 6.53367 78.7026 6.54885C78.3293 6.57646 76.9407 6.58267 75.7761 6.59441L74.8866 6.60614C72.0102 6.65273 69.2811 6.70204 66.7124 6.75386C66.2141 6.76339 65.7943 6.77408 65.4659 6.78561C65.3533 6.79287 65.3372 6.80043 65.4188 6.8077H65.2224L65.263 6.80701ZM203.721 7.35231C204.435 7.3453 205.185 7.33952 205.959 7.33506C206.559 7.33278 207.138 7.32882 207.673 7.32332C210.671 7.29246 213.818 7.26657 217.073 7.24601C217.5 7.24369 217.905 7.2402 218.274 7.23566L220.865 7.19977C221.678 7.18734 221.684 7.18458 220.955 7.15766C220.433 7.15701 219.908 7.15701 219.383 7.15766C219.069 7.15766 218.558 7.15766 218.465 7.16456C217.825 7.18803 216.517 7.19355 215.435 7.20322C212.308 7.23221 209.069 7.25844 205.906 7.28605C205.236 7.29156 204.591 7.29802 203.978 7.30538C203.596 7.30944 203.253 7.31457 202.964 7.32056C202.877 7.32186 202.807 7.32345 202.757 7.32523C202.708 7.32702 202.68 7.32896 202.675 7.33092C202.671 7.33287 202.691 7.33481 202.733 7.33659C202.775 7.33838 202.839 7.33997 202.92 7.34127C203.204 7.34579 203.527 7.34951 203.878 7.35231H203.721ZM207.509 2.12774L210.543 2.08702C210.907 2.08219 211.2 2.0739 211.599 2.07114C213.71 2.0522 215.637 2.02722 217.297 1.99728C217.86 1.98644 218.532 1.97754 219.278 1.97105C221.561 1.95097 223.69 1.92566 225.608 1.89582C226.859 1.87941 228.017 1.86092 229.066 1.8406C229.142 1.83789 229.185 1.83494 229.192 1.83197C229.198 1.82899 229.168 1.82605 229.103 1.82334C229.081 1.8214 229.036 1.81957 228.969 1.818C228.903 1.81642 228.817 1.81513 228.719 1.81421C228.62 1.81329 228.51 1.81277 228.397 1.81268C228.283 1.81258 228.169 1.81292 228.062 1.81367C226.664 1.82007 225.359 1.83214 224.254 1.84888C223.234 1.86529 222.123 1.87986 220.939 1.89236C219.811 1.90548 219.096 1.92757 217.666 1.93447C217.065 1.93831 216.55 1.94563 216.208 1.95518C215.511 1.97256 214.496 1.98528 213.341 1.99107C212.653 1.99525 212.003 2.00131 211.417 2.00902C209.998 2.02904 208.655 2.05112 207.352 2.07252C206.939 2.07881 206.493 2.08436 206.019 2.08909L199.349 2.15811C197.743 2.17399 196.139 2.18918 194.57 2.20643C193.278 2.21845 192.093 2.23381 191.054 2.25199C189.946 2.27128 188.724 2.28842 187.408 2.30307C185.385 2.33068 183.365 2.35622 181.148 2.38245C179.736 2.3997 178.286 2.41627 176.8 2.43146C176.04 2.43713 175.416 2.44745 175.048 2.46045C174.831 2.47011 174.239 2.47149 173.758 2.47563C171.17 2.49099 168.784 2.51596 166.765 2.5488C166.508 2.55328 166.223 2.55722 165.915 2.56053C163.939 2.584 161.886 2.60678 159.991 2.62956C159.494 2.6362 159.031 2.64359 158.608 2.65165C158.672 2.65571 158.824 2.65912 159.031 2.66118C159.239 2.66323 159.487 2.66378 159.724 2.66269C161.566 2.65404 163.323 2.64004 164.921 2.62128C167.572 2.58767 170.369 2.55789 173.284 2.53223C175.554 2.51442 177.585 2.48799 179.225 2.45493C180.51 2.42953 182.241 2.41245 184.123 2.40661C184.931 2.40491 185.698 2.39888 186.321 2.38935C186.917 2.3795 187.615 2.37175 188.373 2.36657C189.97 2.35487 191.491 2.34005 192.908 2.3224C194.285 2.30307 195.552 2.28029 196.969 2.26096C198.385 2.24164 200.56 2.21679 202.303 2.19194C204.046 2.16709 205.781 2.14569 207.509 2.12774ZM79.7152 3.2715C79.952 3.28945 80.569 3.29497 81.2022 3.2929C83.4052 3.29102 85.5325 3.27591 87.2271 3.2501C88.1256 3.23173 89.3708 3.21966 90.718 3.21628C92.2809 3.21081 93.7042 3.1959 94.7374 3.17418C94.9929 3.16948 95.1805 3.16379 95.2836 3.15761C95.2924 3.15347 95.3086 3.14587 95.3115 3.14449C95.187 3.14258 95.038 3.14121 94.876 3.14049C94.714 3.13978 94.5434 3.13973 94.3773 3.14035L87.2909 3.20179L86.052 3.21145C83.774 3.22513 81.6311 3.24543 79.7152 3.2715ZM94.6838 3.4206C95.9001 3.43993 95.9014 3.43923 96.4894 3.43992C99.307 3.43828 102.069 3.42246 104.446 3.39437C104.973 3.38792 105.409 3.3794 105.717 3.36952C105.884 3.36667 105.982 3.36283 105.991 3.35882C105.999 3.35481 105.917 3.35096 105.763 3.34812L104.807 3.3357C103.191 3.34477 101.606 3.35561 100.061 3.36814C98.2621 3.38263 96.6897 3.40127 94.8409 3.4206H94.6838ZM203.042 7.21012C204.23 7.24256 204.232 7.24187 205.98 7.2329C207.199 7.22678 208.369 7.21772 209.456 7.20598C210.784 7.19148 212.149 7.17768 213.475 7.16387C213.803 7.16142 214.071 7.15696 214.228 7.15135C214.386 7.14573 214.42 7.13937 214.326 7.1335C214.125 7.12831 213.828 7.12453 213.482 7.12278C213.136 7.12102 212.762 7.1214 212.421 7.12384L211.698 7.13143C210.815 7.13971 209.895 7.14731 209.05 7.15697C208.509 7.16541 207.869 7.17161 207.18 7.17508C206.491 7.17855 205.771 7.17921 205.077 7.17699L203.042 7.21012ZM99.1418 3.09894C99.4432 3.10341 99.7788 3.10712 100.14 3.10998C101.509 3.11348 102.923 3.10782 104.103 3.09411C104.665 3.08858 105.159 3.07823 105.75 3.07754C106.799 3.0735 107.802 3.066 108.705 3.05545C108.705 3.05545 108.951 3.05062 109.033 3.04924L109.097 3.01887C108.645 3.01745 108.18 3.01745 107.722 3.01887C106.207 3.02922 104.726 3.04165 103.247 3.05338C101.768 3.06511 101.25 3.06857 100.288 3.07754C99.868 3.08402 99.4841 3.09119 99.1418 3.09894ZM80.3659 7.00373L82.5323 7.03825C83.181 7.0357 83.7726 7.02954 84.217 7.0207C84.6615 7.01185 84.9344 7.0008 84.9944 6.98924C85.1361 6.98246 85.1248 6.97508 84.9626 6.96864C84.8005 6.96221 84.5003 6.95722 84.1249 6.95472C83.7579 6.95083 83.3464 6.94833 82.9158 6.94738C82.4852 6.94643 82.0447 6.94705 81.6218 6.9492L80.3659 7.00373ZM95.4639 6.52055C94.154 6.52604 92.9217 6.53666 91.861 6.55161C91.2097 6.56546 90.2904 6.57459 89.2917 6.57715C87.4694 6.58023 85.76 6.59557 84.5242 6.61995C84.5242 6.61995 84.5064 6.62823 84.2996 6.63306C84.0929 6.6379 84.9677 6.63306 85.1642 6.63306C86.5631 6.62202 87.9649 6.60959 89.1703 6.59717C89.9137 6.58814 90.7072 6.5805 91.5374 6.57439C92.6819 6.5666 93.7537 6.55564 94.711 6.54195C94.711 6.54195 95.0779 6.53574 95.4624 6.52124L95.4639 6.52055ZM219.848 1.86959C219.199 1.86599 218.506 1.86505 217.822 1.86685C217.137 1.86864 216.479 1.87312 215.896 1.87994C215.449 1.88473 215.099 1.89195 214.903 1.90045C214.707 1.90895 214.676 1.91825 214.814 1.92688C215.286 1.92688 215.914 1.92688 216.268 1.92688C217.438 1.91238 218.418 1.89513 219.848 1.86959ZM337.124 1.42023C336.603 1.41731 336.04 1.41706 335.499 1.4195C334.959 1.42194 334.463 1.42698 334.068 1.43403C333.865 1.43748 334.043 1.44577 334.03 1.45198C334.012 1.45357 334.019 1.4552 334.049 1.45669C334.079 1.45819 334.132 1.4595 334.203 1.46049C334.273 1.46148 334.358 1.46211 334.448 1.46231C334.539 1.46251 334.631 1.46228 334.717 1.46164C335.26 1.45906 335.764 1.45418 336.183 1.44743C336.602 1.44069 336.923 1.43229 337.118 1.42299L337.124 1.42023ZM345.225 1.45405C345.13 1.44978 344.949 1.44631 344.715 1.44428C344.481 1.44225 344.21 1.4418 343.952 1.44301C343.507 1.4481 343.109 1.4544 342.773 1.46164C342.404 1.46855 342.733 1.48028 343.277 1.48304C343.507 1.48401 343.749 1.48402 343.983 1.48307C344.217 1.48211 344.437 1.48022 344.626 1.47754C344.815 1.47486 344.967 1.47146 345.07 1.46762C345.174 1.46379 345.226 1.45961 345.222 1.45543L345.225 1.45405ZM119.141 2.91602C117.933 2.91119 117.075 2.92637 116.084 2.93051C115.093 2.93466 114.852 2.93673 115.027 2.94708C115.201 2.95743 115.852 2.94708 116.284 2.94708C116.868 2.94696 117.444 2.94399 117.949 2.9385C118.453 2.93302 118.866 2.92523 119.141 2.91602ZM368.073 3.19764C367.455 3.20074 366.854 3.2049 366.278 3.21007C366.21 3.21269 366.172 3.21551 366.166 3.21835C366.16 3.2212 366.186 3.22401 366.243 3.22663C366.243 3.22663 366.665 3.23147 366.901 3.23147C367.767 3.23078 367.757 3.21697 368.073 3.19764ZM459.791 3.89826C460.246 3.90585 460.469 3.91206 460.818 3.91413C460.976 3.91441 461.137 3.91406 461.289 3.9131C461.44 3.91215 461.579 3.91061 461.695 3.90861C461.824 3.90328 461.837 3.89737 461.73 3.89204C461.73 3.89204 461.272 3.88583 461.111 3.88721C460.65 3.88999 460.207 3.8937 459.791 3.89826ZM99.3789 3.04303C98.4751 3.04303 97.6105 3.04303 97.0584 3.06235C98.4805 3.0589 98.4805 3.0589 99.3789 3.04303ZM113.828 2.99333C112.871 2.98159 112.351 2.98573 111.942 2.99333C111.855 2.99504 111.802 2.99718 111.79 2.99943C111.777 3.00168 111.807 3.0039 111.874 3.00578C111.941 3.00765 112.042 3.00906 112.161 3.0098C112.28 3.01055 112.412 3.01058 112.535 3.00989C112.993 3.00506 113.425 2.99951 113.828 2.99333ZM158.775 2.46252C158.782 2.45907 158.791 2.45493 158.555 2.45493C158.491 2.45426 158.417 2.45391 158.341 2.45391C158.266 2.45391 158.19 2.45426 158.123 2.45493C158.123 2.45493 158.114 2.45907 158.109 2.46183L158.775 2.46252ZM210.324 7.42548L209.834 7.43445H210.069L210.671 7.42893L210.324 7.42548ZM370.99 1.09166C370.794 1.09166 370.597 1.09166 370.587 1.0965C370.55 1.09767 370.529 1.09897 370.526 1.10029C370.524 1.10161 370.539 1.10291 370.571 1.10409C370.571 1.10409 370.846 1.10409 370.964 1.10409L370.99 1.09166ZM341.87 1.47959C341.745 1.48082 341.635 1.48246 341.545 1.48442L341.536 1.48856H341.929L341.87 1.47959ZM90.4029 5.46584C90.2489 5.46524 90.088 5.46524 89.9314 5.46584H89.7348C89.7348 5.46584 89.9618 5.46998 90.0797 5.46998C90.1975 5.46998 90.2821 5.46722 90.4029 5.46584Z"
    fill="#00C39A"
  />
</svg>
